<svg width="12" height="18" viewBox="0 0 12 18" fill="none" xmlns="http://www.w3.org/2000/svg">
<path fill-rule="evenodd" clip-rule="evenodd" d="M6.46804 4.56289C6.36372 4.4064 6.18809 4.31241 6.00001 4.31241C5.81194 4.31241 5.63631 4.4064 5.53198 4.56289L4.77761 5.69445L3.23859 6.0792C3.04198 6.12835 2.88702 6.27946 2.83292 6.47476C2.77883 6.67006 2.83397 6.87936 2.97727 7.02266L4.06456 8.10995L3.70431 9.55098C3.65273 9.75731 3.72193 9.97509 3.88315 10.1138C4.04437 10.2525 4.27004 10.2884 4.46636 10.2066L6.00001 9.56762L7.53367 10.2066C7.72999 10.2884 7.95566 10.2525 8.11688 10.1138C8.2781 9.97509 8.3473 9.75731 8.29572 9.55098L7.93546 8.10995L9.02276 7.02266C9.16606 6.87936 9.2212 6.67006 9.1671 6.47476C9.11301 6.27946 8.95804 6.12835 8.76144 6.0792L7.22241 5.69445L6.46804 4.56289ZM5.59304 6.49943L6.00001 5.88897L6.40698 6.49943C6.4846 6.61586 6.60283 6.69918 6.73859 6.73311L7.52477 6.92966L6.91477 7.53966C6.77505 7.67937 6.71889 7.88215 6.76681 8.07383L6.93272 8.7375L6.21636 8.43901C6.0779 8.38132 5.92213 8.38132 5.78367 8.43901L5.0673 8.7375L5.23322 8.07383C5.28114 7.88215 5.22497 7.67937 5.08526 7.53966L4.47526 6.92966L5.26144 6.73311C5.39719 6.69918 5.51542 6.61586 5.59304 6.49943Z" fill="#36B0E3"/>
<path fill-rule="evenodd" clip-rule="evenodd" d="M4.6819 1.32609C5.48483 0.809923 6.51517 0.809922 7.3181 1.32609L10.6931 3.49573C11.3908 3.94424 11.8125 4.71671 11.8125 5.54611V9.40129C11.8125 10.2307 11.3908 11.0032 10.6931 11.4517L10.3125 11.6963L10.3125 15.827C10.3125 15.9545 10.3126 16.085 10.3027 16.1946C10.2921 16.3118 10.2655 16.4795 10.1613 16.6399C10.0289 16.8437 9.82263 16.9882 9.58588 17.0428C9.39944 17.0859 9.23279 17.0535 9.119 17.0234C9.0127 16.9952 8.89005 16.9505 8.77026 16.9069L6 15.8985L3.22982 16.9069C3.11 16.9505 2.98733 16.9952 2.88101 17.0234C2.76722 17.0535 2.60058 17.0859 2.41413 17.0428C2.17738 16.9882 1.97109 16.8437 1.83875 16.6399C1.73454 16.4795 1.70794 16.3118 1.69735 16.1946C1.68745 16.085 1.68748 15.9545 1.6875 15.827L1.6875 11.6963L1.3069 11.4517C0.609237 11.0032 0.1875 10.2307 0.1875 9.40129V5.54611C0.1875 4.71671 0.609236 3.94424 1.3069 3.49573L4.6819 1.32609ZM7.3181 13.6213L9.1875 12.4195L9.18749 15.8615L6.19241 14.7713C6.06813 14.7261 5.93188 14.7261 5.8076 14.7713L2.81252 15.8615L2.8125 12.4195L4.6819 13.6213C5.48484 14.1375 6.51517 14.1375 7.3181 13.6213ZM6.70974 2.27242C6.2774 1.99448 5.7226 1.99448 5.29026 2.27242L1.91526 4.44206C1.53959 4.68356 1.3125 5.09951 1.3125 5.54611V9.40129C1.3125 9.84788 1.53959 10.2638 1.91526 10.5053L5.29026 12.675C5.7226 12.9529 6.2774 12.9529 6.70975 12.675L10.0847 10.5053C10.4604 10.2638 10.6875 9.84788 10.6875 9.40129V5.54611C10.6875 5.09951 10.4604 4.68356 10.0847 4.44206L6.70974 2.27242Z" fill="#36B0E3"/>
</svg>
