<svg width="18" height="18" viewBox="0 0 18 18" fill="none" xmlns="http://www.w3.org/2000/svg">
<g clip-path="url(#clip0_1_6255)">
<path d="M14.8125 7.125C14.8125 6.81434 14.5607 6.5625 14.25 6.5625L11.25 6.5625C10.9393 6.5625 10.6875 6.81434 10.6875 7.125C10.6875 7.43566 10.9393 7.6875 11.25 7.6875H14.25C14.5607 7.6875 14.8125 7.43566 14.8125 7.125Z" fill="#36B0E3"/>
<path d="M14.8125 9.75C14.8125 9.43934 14.5607 9.1875 14.25 9.1875H11.25C10.9393 9.1875 10.6875 9.43934 10.6875 9.75C10.6875 10.0607 10.9393 10.3125 11.25 10.3125H14.25C14.5607 10.3125 14.8125 10.0607 14.8125 9.75Z" fill="#36B0E3"/>
<path d="M14.25 11.8125C14.5607 11.8125 14.8125 12.0643 14.8125 12.375C14.8125 12.6857 14.5607 12.9375 14.25 12.9375H11.25C10.9393 12.9375 10.6875 12.6857 10.6875 12.375C10.6875 12.0643 10.9393 11.8125 11.25 11.8125H14.25Z" fill="#36B0E3"/>
<path fill-rule="evenodd" clip-rule="evenodd" d="M3.75 1.6875C3.43934 1.6875 3.1875 1.93934 3.1875 2.25V3.1946C1.92892 3.29035 0.9375 4.3419 0.9375 5.625V13.875C0.9375 15.2212 2.02881 16.3125 3.375 16.3125L14.625 16.3125C15.9712 16.3125 17.0625 15.2212 17.0625 13.875L17.0625 5.625C17.0625 4.27881 15.9712 3.1875 14.625 3.1875H9.07967C8.51645 2.28669 7.5157 1.6875 6.375 1.6875H3.75ZM9.51303 4.3125C9.54554 4.49509 9.5625 4.68306 9.5625 4.875V15.1875L14.625 15.1875C15.3499 15.1875 15.9375 14.5999 15.9375 13.875L15.9375 5.625C15.9375 4.90013 15.3499 4.3125 14.625 4.3125L9.51303 4.3125ZM8.34148 15.1875C8.10982 14.5321 7.48475 14.0625 6.75 14.0625H3.75C3.43934 14.0625 3.1875 13.8107 3.1875 13.5V4.32579C2.55145 4.41677 2.0625 4.96379 2.0625 5.625L2.0625 13.875C2.0625 14.5999 2.65013 15.1875 3.375 15.1875H8.34148ZM8.4375 4.875V13.4998C7.96744 13.1467 7.38315 12.9375 6.75 12.9375H4.3125V2.8125H6.375C7.51409 2.8125 8.4375 3.73591 8.4375 4.875Z" fill="#36B0E3"/>
</g>
<defs>
<clipPath id="clip0_1_6255">
<rect width="18" height="18" fill="white"/>
</clipPath>
</defs>
</svg>
