<svg width="18" height="18" viewBox="0 0 18 18" fill="none" xmlns="http://www.w3.org/2000/svg">
<g clip-path="url(#clip0_1_6222)">
<path d="M8.2054 5.65981C8.24326 5.35147 8.52391 5.1322 8.83226 5.17006L11.4536 5.49192C11.7619 5.52978 11.9812 5.81043 11.9433 6.11877C11.9055 6.42712 11.6248 6.64639 11.3165 6.60853L8.69515 6.28667C8.38681 6.24881 8.16754 5.96816 8.2054 5.65981Z" fill="#36B0E3"/>
<path d="M7.83756 8.65563C7.87542 8.34728 8.15607 8.12801 8.46442 8.16587L12.9581 8.71762C13.2665 8.75548 13.4858 9.03613 13.4479 9.34448C13.41 9.65282 13.1294 9.8721 12.821 9.83424L8.32731 9.28248C8.01897 9.24462 7.7997 8.96397 7.83756 8.65563Z" fill="#36B0E3"/>
<path d="M7.46972 11.6514C7.50758 11.3431 7.78823 11.1238 8.09658 11.1617L12.5903 11.7134C12.8986 11.7513 13.1179 12.0319 13.0801 12.3403C13.0422 12.6486 12.7615 12.8679 12.4532 12.83L7.95947 12.2783C7.65113 12.2404 7.43186 11.9598 7.46972 11.6514Z" fill="#36B0E3"/>
<path fill-rule="evenodd" clip-rule="evenodd" d="M5.43932 3.41959C5.62955 1.87034 7.03967 0.768632 8.58892 0.958856L14.5805 1.69454C16.1298 1.88476 17.2315 3.29488 17.0413 4.84413L15.8458 14.5805C15.6556 16.1298 14.2455 17.2315 12.6962 17.0413L6.70458 16.3056C5.94116 16.2118 5.28641 15.8219 4.84137 15.265C3.32939 15.4132 1.97108 14.3235 1.78554 12.8061L0.958647 6.04332C0.770264 4.50262 1.8613 3.09653 3.40106 2.90668C3.70939 2.86866 3.99015 3.08779 4.02817 3.39612C4.06619 3.70444 3.84706 3.98521 3.53873 4.02322C2.61944 4.13657 1.96178 4.9781 2.07533 5.90678L2.90222 12.6695C2.99543 13.4318 3.57866 14.0106 4.29311 14.1305C4.22198 13.8194 4.20271 13.491 4.24384 13.156L5.43932 3.41959ZM8.45182 2.07547C7.51925 1.96097 6.67044 2.62413 6.55594 3.55669L5.36046 13.2931C5.24595 14.2256 5.90912 15.0745 6.84168 15.189L12.8333 15.9246C13.7659 16.0391 14.6147 15.376 14.7292 14.4434L15.9247 4.70703C16.0392 3.77447 15.376 2.92565 14.4434 2.81115L8.45182 2.07547Z" fill="#36B0E3"/>
</g>
<defs>
<clipPath id="clip0_1_6222">
<rect width="18" height="18" fill="white"/>
</clipPath>
</defs>
</svg>
