<svg width="24" height="24" viewBox="0 0 24 24" fill="none" xmlns="http://www.w3.org/2000/svg">
<g clip-path="url(#clip0_1_5668)">
<path fill-rule="evenodd" clip-rule="evenodd" d="M7 1.25C7.41421 1.25 7.75 1.58579 7.75 2V2.75H14.25V2C14.25 1.58579 14.5858 1.25 15 1.25C15.4142 1.25 15.75 1.58579 15.75 2V2.75H16.5C18.8472 2.75 20.75 4.65279 20.75 7V10C20.75 10.4142 20.4142 10.75 20 10.75C19.5858 10.75 19.25 10.4142 19.25 10V9.25H2.75V17.5C2.75 19.0188 3.98122 20.25 5.5 20.25H10C10.4142 20.25 10.75 20.5858 10.75 21C10.75 21.4142 10.4142 21.75 10 21.75H5.5C3.15279 21.75 1.25 19.8472 1.25 17.5V7C1.25 4.65279 3.15279 2.75 5.5 2.75H6.25V2C6.25 1.58579 6.58579 1.25 7 1.25ZM19.25 7V7.75H2.75V7C2.75 5.48122 3.98122 4.25 5.5 4.25H6.25V5C6.25 5.41421 6.58579 5.75 7 5.75C7.41421 5.75 7.75 5.41421 7.75 5V4.25H14.25V5C14.25 5.41421 14.5858 5.75 15 5.75C15.4142 5.75 15.75 5.41421 15.75 5V4.25H16.5C18.0188 4.25 19.25 5.48122 19.25 7Z" fill="#5D6A85"/>
<path d="M6 13C6 12.4477 6.44772 12 7 12C7.55228 12 8 12.4477 8 13C8 13.5523 7.55228 14 7 14C6.44772 14 6 13.5523 6 13Z" fill="#5D6A85"/>
<path d="M10 13C10 12.4477 10.4477 12 11 12C11.5523 12 12 12.4477 12 13C12 13.5523 11.5523 14 11 14C10.4477 14 10 13.5523 10 13Z" fill="#5D6A85"/>
<path d="M6 16.5C6 15.9477 6.44772 15.5 7 15.5C7.55228 15.5 8 15.9477 8 16.5C8 17.0523 7.55228 17.5 7 17.5C6.44772 17.5 6 17.0523 6 16.5Z" fill="#5D6A85"/>
<path d="M20 17.75C20 18.1642 19.6642 18.5 19.25 18.5H18.5V19.25C18.5 19.6642 18.1642 20 17.75 20C17.3358 20 17 19.6642 17 19.25V18.5H16.25C15.8358 18.5 15.5 18.1642 15.5 17.75C15.5 17.3358 15.8358 17 16.25 17H17V16.25C17 15.8358 17.3358 15.5 17.75 15.5C18.1642 15.5 18.5 15.8358 18.5 16.25V17H19.25C19.6642 17 20 17.3358 20 17.75Z" fill="#5D6A85"/>
<path fill-rule="evenodd" clip-rule="evenodd" d="M17.75 12.75C14.9886 12.75 12.75 14.9886 12.75 17.75C12.75 20.5114 14.9886 22.75 17.75 22.75C20.5114 22.75 22.75 20.5114 22.75 17.75C22.75 14.9886 20.5114 12.75 17.75 12.75ZM14.25 17.75C14.25 15.817 15.817 14.25 17.75 14.25C19.683 14.25 21.25 15.817 21.25 17.75C21.25 19.683 19.683 21.25 17.75 21.25C15.817 21.25 14.25 19.683 14.25 17.75Z" fill="#5D6A85"/>
</g>
<defs>
<clipPath id="clip0_1_5668">
<rect width="24" height="24" fill="white"/>
</clipPath>
</defs>
</svg>
