<svg width="22" height="22" viewBox="0 0 22 22" fill="none" xmlns="http://www.w3.org/2000/svg">
<path d="M7.25 7C7.25 6.58579 7.58579 6.25 8 6.25H13C13.4142 6.25 13.75 6.58579 13.75 7C13.75 7.41421 13.4142 7.75 13 7.75H8C7.58579 7.75 7.25 7.41421 7.25 7Z" fill="#5D6A85"/>
<path d="M5 6C4.44772 6 4 6.44772 4 7C4 7.55228 4.44772 8 5 8C5.55228 8 6 7.55228 6 7C6 6.44772 5.55228 6 5 6Z" fill="#5D6A85"/>
<path d="M4 11C4 10.4477 4.44772 10 5 10C5.55228 10 6 10.4477 6 11C6 11.5523 5.55228 12 5 12C4.44772 12 4 11.5523 4 11Z" fill="#5D6A85"/>
<path d="M8 10.25C7.58579 10.25 7.25 10.5858 7.25 11C7.25 11.4142 7.58579 11.75 8 11.75H13C13.4142 11.75 13.75 11.4142 13.75 11C13.75 10.5858 13.4142 10.25 13 10.25H8Z" fill="#5D6A85"/>
<path d="M4 15C4 14.4477 4.44772 14 5 14C5.55228 14 6 14.4477 6 15C6 15.5523 5.55228 16 5 16C4.44772 16 4 15.5523 4 15Z" fill="#5D6A85"/>
<path d="M8 14.25C7.58579 14.25 7.25 14.5858 7.25 15C7.25 15.4142 7.58579 15.75 8 15.75H13C13.4142 15.75 13.75 15.4142 13.75 15C13.75 14.5858 13.4142 14.25 13 14.25H8Z" fill="#5D6A85"/>
<path fill-rule="evenodd" clip-rule="evenodd" d="M18.5832 21.7454C18.5559 21.7485 18.5281 21.75 18.5 21.75H4.5C2.15279 21.75 0.25 19.8472 0.25 17.5V3.5C0.25 1.70507 1.70507 0.25 3.5 0.25H14C15.794 0.25 17.25 1.7018 17.25 3.49765V11.25H20.5C21.1904 11.25 21.75 11.8096 21.75 12.5V18.75C21.75 20.4069 20.4069 21.75 18.75 21.75C18.694 21.75 18.6384 21.7485 18.5832 21.7454ZM1.75 3.5C1.75 2.5335 2.5335 1.75 3.5 1.75H14C14.9674 1.75 15.75 2.53207 15.75 3.49765V18.75C15.75 19.2964 15.8961 19.8087 16.1513 20.25H4.5C2.98122 20.25 1.75 19.0188 1.75 17.5V3.5ZM17.25 12.75V18.75C17.25 19.5784 17.9216 20.25 18.75 20.25C19.5784 20.25 20.25 19.5784 20.25 18.75V12.75H17.25Z" fill="#5D6A85"/>
</svg>
