<svg width="24" height="24" viewBox="0 0 24 24" fill="none" xmlns="http://www.w3.org/2000/svg">
    <path d="M7.00244 4.99811L6.37774 4.21724H6.37774L7.00244 4.99811ZM16.9976 4.99811L17.6223 4.21724L16.9976 4.99811ZM18.9976 6.59811L18.3729 7.37897V7.37898L18.9976 6.59811ZM5.00244 6.59811L5.62713 7.37898V7.37898L5.00244 6.59811ZM21 12.8451V14.0001H23V12.8451H21ZM14 21.0001H10V23.0001H14V21.0001ZM3 14.0001V12.8451H1V14.0001H3ZM5.62713 7.37898L7.62713 5.77898L6.37774 4.21724L4.37774 5.81724L5.62713 7.37898ZM16.3729 5.77898L18.3729 7.37897L19.6223 5.81724L17.6223 4.21724L16.3729 5.77898ZM7.62713 5.77898C8.8446 4.805 9.68883 4.13181 10.3999 3.6918C11.0878 3.26611 11.5535 3.12256 12 3.12256V1.12256C11.0433 1.12256 10.2085 1.45827 9.34744 1.9911C8.50956 2.5096 7.55656 3.27418 6.37774 4.21724L7.62713 5.77898ZM17.6223 4.21724C16.4434 3.27418 15.4904 2.5096 14.6526 1.9911C13.7915 1.45827 12.9567 1.12256 12 1.12256V3.12256C12.4465 3.12256 12.9122 3.26611 13.6001 3.6918C14.3112 4.13181 15.1554 4.805 16.3729 5.77898L17.6223 4.21724ZM10 21.0001C8.08611 21.0001 6.75129 20.9979 5.74416 20.8625C4.76579 20.731 4.2477 20.4904 3.87868 20.1214L2.46447 21.5356C3.26702 22.3381 4.27752 22.6833 5.47766 22.8447C6.64904 23.0022 8.14265 23.0001 10 23.0001V21.0001ZM1 14.0001C1 15.8574 0.997876 17.351 1.15536 18.5224C1.31672 19.7225 1.66191 20.733 2.46447 21.5356L3.87868 20.1214C3.50966 19.7524 3.26907 19.2343 3.13753 18.2559C3.00212 17.2488 3 15.9139 3 14.0001H1ZM21 14.0001C21 15.9139 20.9979 17.2488 20.8625 18.2559C20.7309 19.2343 20.4903 19.7524 20.1213 20.1214L21.5355 21.5356C22.3381 20.733 22.6833 19.7225 22.8446 18.5224C23.0021 17.351 23 15.8574 23 14.0001H21ZM14 23.0001C15.8573 23.0001 17.351 23.0022 18.5223 22.8447C19.7225 22.6833 20.733 22.3381 21.5355 21.5356L20.1213 20.1214C19.7523 20.4904 19.2342 20.731 18.2558 20.8625C17.2487 20.9979 15.9139 21.0001 14 21.0001V23.0001ZM23 12.8451C23 11.0519 23.0231 9.8315 22.5065 8.75661L20.7039 9.62299C20.9769 10.1909 21 10.8597 21 12.8451H23ZM18.3729 7.37898C19.9231 8.61919 20.431 9.05507 20.7039 9.62299L22.5065 8.75661C21.9899 7.68173 21.0225 6.93741 19.6223 5.81724L18.3729 7.37898ZM3 12.8451C3 10.8597 3.02313 10.1909 3.29609 9.62299L1.49348 8.75661C0.976869 9.8315 1 11.0519 1 12.8451H3ZM4.37774 5.81724C2.97752 6.93742 2.0101 7.68173 1.49348 8.75661L3.29609 9.62299C3.56905 9.05507 4.07687 8.61919 5.62713 7.37898L4.37774 5.81724ZM9 18.0001H15V16.0001H9V18.0001Z" fill="#5D6A85"/>
</svg>
