<svg width="22" height="19" viewBox="0 0 22 19" fill="none" xmlns="http://www.w3.org/2000/svg">
<path fill-rule="evenodd" clip-rule="evenodd" d="M11 5.75C8.92893 5.75 7.25 7.42893 7.25 9.5C7.25 11.5711 8.92893 13.25 11 13.25C13.0711 13.25 14.75 11.5711 14.75 9.5C14.75 7.42893 13.0711 5.75 11 5.75ZM8.75 9.5C8.75 8.25736 9.75736 7.25 11 7.25C12.2426 7.25 13.25 8.25736 13.25 9.5C13.25 10.7426 12.2426 11.75 11 11.75C9.75736 11.75 8.75 10.7426 8.75 9.5Z" fill="#5D6A85"/>
<path d="M17 7.25C17.4142 7.25 17.75 7.58579 17.75 8V11C17.75 11.4142 17.4142 11.75 17 11.75C16.5858 11.75 16.25 11.4142 16.25 11V8C16.25 7.58579 16.5858 7.25 17 7.25Z" fill="#5D6A85"/>
<path d="M5.75 8C5.75 7.58579 5.41421 7.25 5 7.25C4.58579 7.25 4.25 7.58579 4.25 8L4.25 11C4.25 11.4142 4.58579 11.75 5 11.75C5.41421 11.75 5.75 11.4142 5.75 11V8Z" fill="#5D6A85"/>
<path fill-rule="evenodd" clip-rule="evenodd" d="M4.5 0.25C2.15279 0.25 0.25 2.15279 0.25 4.5V14.5C0.25 16.8472 2.15279 18.75 4.5 18.75H17.5C19.8472 18.75 21.75 16.8472 21.75 14.5V4.5C21.75 2.15279 19.8472 0.25 17.5 0.25H4.5ZM1.75 4.5C1.75 2.98122 2.98122 1.75 4.5 1.75H17.5C19.0188 1.75 20.25 2.98122 20.25 4.5V14.5C20.25 16.0188 19.0188 17.25 17.5 17.25H4.5C2.98122 17.25 1.75 16.0188 1.75 14.5V4.5Z" fill="#5D6A85"/>
</svg>
