<svg width="22" height="22" viewBox="0 0 22 22" fill="none" xmlns="http://www.w3.org/2000/svg">
<path d="M15 5.5C15 7.98528 13.2091 10 11 10C8.79086 10 7 7.98528 7 5.5C7 3.01472 8.79086 1 11 1C13.2091 1 15 3.01472 15 5.5Z" stroke="#5D6A85" stroke-width="2" stroke-linejoin="round"/>
<path d="M1.5 17.3333C3.07379 15.235 5.54369 14 8.16667 14H13.8333C16.4563 14 18.9262 15.235 20.5 17.3333L20.55 17.4C20.8421 17.7895 21 18.2632 21 18.75C21 19.9926 19.9926 21 18.75 21H3.25C2.00736 21 1 19.9926 1 18.75C1 18.2632 1.1579 17.7895 1.45 17.4L1.5 17.3333Z" stroke="#5D6A85" stroke-width="2" stroke-linejoin="round"/>
</svg>
