<svg width="24" height="24" viewBox="0 0 24 24" fill="none" xmlns="http://www.w3.org/2000/svg">
<path d="M21.3259 17.2223L22.1573 17.7779L21.3259 17.2223ZM20.2223 18.3259L20.7779 19.1573L20.2223 18.3259ZM20.2223 5.67412L20.7779 4.84265V4.84265L20.2223 5.67412ZM21.3259 6.77772L22.1573 6.22215V6.22215L21.3259 6.77772ZM2.67412 6.77772L1.84265 6.22215L1.84265 6.22215L2.67412 6.77772ZM3.77772 5.67412L3.22215 4.84265L3.22215 4.84265L3.77772 5.67412ZM2.67412 17.2223L1.84265 17.7779H1.84265L2.67412 17.2223ZM3.77772 18.3259L3.22215 19.1573H3.22215L3.77772 18.3259ZM9 6H15V4H9V6ZM15 18H9V20H15V18ZM21 12C21 13.4253 20.9988 14.419 20.9209 15.1849C20.8446 15.9342 20.7034 16.354 20.4944 16.6667L22.1573 17.7779C22.6225 17.0817 22.8183 16.2948 22.9106 15.3874C23.0012 14.4967 23 13.3837 23 12H21ZM15 20C16.3836 20 17.4967 20.0012 18.3874 19.9106C19.2948 19.8183 20.0817 19.6225 20.7779 19.1573L19.6667 17.4944C19.354 17.7034 18.9342 17.8446 18.1849 17.9209C17.419 17.9988 16.4253 18 15 18V20ZM20.4944 16.6667C20.2755 16.9943 19.9943 17.2755 19.6667 17.4944L20.7779 19.1573C21.3238 18.7926 21.7926 18.3238 22.1573 17.7779L20.4944 16.6667ZM15 6C16.4253 6 17.419 6.00121 18.1849 6.07913C18.9342 6.15535 19.354 6.29662 19.6667 6.50559L20.7779 4.84265C20.0817 4.3775 19.2948 4.18171 18.3874 4.0894C17.4967 3.99879 16.3836 4 15 4V6ZM23 12C23 10.6164 23.0012 9.50334 22.9106 8.61264C22.8183 7.70523 22.6225 6.91829 22.1573 6.22215L20.4944 7.33329C20.7034 7.64604 20.8446 8.06578 20.9209 8.81505C20.9988 9.58104 21 10.5747 21 12H23ZM19.6667 6.50559C19.9943 6.72447 20.2755 7.00572 20.4944 7.33329L22.1573 6.22215C21.7926 5.6762 21.3238 5.20744 20.7779 4.84265L19.6667 6.50559ZM3 12C3 10.5747 3.00121 9.58104 3.07913 8.81505C3.15535 8.06578 3.29662 7.64604 3.50559 7.33329L1.84265 6.22215C1.3775 6.91829 1.18171 7.70523 1.0894 8.61264C0.998791 9.50334 1 10.6164 1 12H3ZM9 4C7.61635 4 6.50334 3.99879 5.61264 4.0894C4.70523 4.18171 3.91829 4.3775 3.22215 4.84265L4.33329 6.50559C4.64604 6.29662 5.06578 6.15535 5.81505 6.07913C6.58104 6.00121 7.57473 6 9 6V4ZM3.50559 7.33329C3.72447 7.00572 4.00572 6.72447 4.33329 6.50559L3.22215 4.84265C2.6762 5.20744 2.20744 5.6762 1.84265 6.22215L3.50559 7.33329ZM1 12C1 13.3837 0.998791 14.4967 1.0894 15.3874C1.18171 16.2948 1.3775 17.0817 1.84265 17.7779L3.50559 16.6667C3.29662 16.354 3.15535 15.9342 3.07913 15.1849C3.00121 14.419 3 13.4253 3 12H1ZM9 18C7.57473 18 6.58104 17.9988 5.81505 17.9209C5.06578 17.8446 4.64604 17.7034 4.33329 17.4944L3.22215 19.1573C3.91829 19.6225 4.70523 19.8183 5.61264 19.9106C6.50334 20.0012 7.61635 20 9 20V18ZM1.84265 17.7779C2.20744 18.3238 2.6762 18.7926 3.22215 19.1573L4.33329 17.4944C4.00572 17.2755 3.72447 16.9943 3.50559 16.6667L1.84265 17.7779ZM15 11H13V13H15V11ZM11 11H9V13H11V11ZM7 11H5V13H7V11ZM19 11H17V13H19V11Z" fill="black"/>
</svg>
