<svg width="14" height="14" viewBox="0 0 14 14" fill="none" xmlns="http://www.w3.org/2000/svg">
<g clip-path="url(#clip0_1_5573)">
<path fill-rule="evenodd" clip-rule="evenodd" d="M6.12435 5.97916C6.12435 4.93212 6.97314 4.08332 8.02018 4.08332C9.06722 4.08332 9.91602 4.93212 9.91602 5.97916C9.91602 7.0262 9.06722 7.87499 8.02018 7.87499C6.97314 7.87499 6.12435 7.0262 6.12435 5.97916ZM8.02018 4.95832C7.45639 4.95832 6.99935 5.41537 6.99935 5.97916C6.99935 6.54295 7.45639 6.99999 8.02018 6.99999C8.58397 6.99999 9.04102 6.54295 9.04102 5.97916C9.04102 5.41537 8.58397 4.95832 8.02018 4.95832Z" fill="black"/>
<path d="M11.0827 4.81249C10.8411 4.81249 10.6452 5.00837 10.6452 5.24999V6.70832C10.6452 6.94995 10.8411 7.14582 11.0827 7.14582C11.3243 7.14582 11.5202 6.94995 11.5202 6.70832V5.24999C11.5202 5.00837 11.3243 4.81249 11.0827 4.81249Z" fill="black"/>
<path d="M4.52018 6.70832V5.24999C4.52018 5.00837 4.71606 4.81249 4.95768 4.81249C5.19931 4.81249 5.39518 5.00837 5.39518 5.24999V6.70832C5.39518 6.94995 5.19931 7.14582 4.95768 7.14582C4.71606 7.14582 4.52018 6.94995 4.52018 6.70832Z" fill="black"/>
<path fill-rule="evenodd" clip-rule="evenodd" d="M2.77018 3.79166C2.77018 2.58353 3.74956 1.60416 4.95768 1.60416H11.0827C12.2908 1.60416 13.2702 2.58353 13.2702 3.79166V8.16666C13.2702 9.37478 12.2908 10.3542 11.0827 10.3542H4.95768C3.74956 10.3542 2.77018 9.37478 2.77018 8.16666V3.79166ZM4.95768 2.47916C4.23281 2.47916 3.64518 3.06678 3.64518 3.79166V8.16666C3.64518 8.89153 4.23281 9.47916 4.95768 9.47916H11.0827C11.8076 9.47916 12.3952 8.89153 12.3952 8.16666V3.79166C12.3952 3.06678 11.8076 2.47916 11.0827 2.47916H4.95768Z" fill="black"/>
<path d="M2.04112 4.85266C2.22117 4.69152 2.23649 4.41493 2.07535 4.23489C1.9142 4.05485 1.63762 4.03953 1.45757 4.20067C1.01075 4.60059 0.728516 5.18316 0.728516 5.83106V10.2061C0.728516 11.4142 1.70789 12.3936 2.91602 12.3936H9.04102C9.68892 12.3936 10.2715 12.1113 10.6714 11.6645C10.8326 11.4845 10.8172 11.2079 10.6372 11.0467C10.4571 10.8856 10.1806 10.9009 10.0194 11.081C9.77846 11.3502 9.42969 11.5186 9.04102 11.5186H2.91602C2.19114 11.5186 1.60352 10.9309 1.60352 10.2061V5.83106C1.60352 5.44238 1.77191 5.09362 2.04112 4.85266Z" fill="black"/>
</g>
<defs>
<clipPath id="clip0_1_5573">
<rect width="14" height="14" fill="white"/>
</clipPath>
</defs>
</svg>
