<svg width="14" height="14" viewBox="0 0 14 14" fill="none" xmlns="http://www.w3.org/2000/svg">
<g clip-path="url(#clip0_1_5569)">
<path fill-rule="evenodd" clip-rule="evenodd" d="M6.99935 5.10418C5.79123 5.10418 4.81185 6.08355 4.81185 7.29168C4.81185 8.4998 5.79123 9.47918 6.99935 9.47918C8.20747 9.47918 9.18685 8.4998 9.18685 7.29168C9.18685 6.08355 8.20747 5.10418 6.99935 5.10418ZM5.68685 7.29168C5.68685 6.5668 6.27448 5.97918 6.99935 5.97918C7.72422 5.97918 8.31185 6.5668 8.31185 7.29168C8.31185 8.01655 7.72422 8.60418 6.99935 8.60418C6.27448 8.60418 5.68685 8.01655 5.68685 7.29168Z" fill="black"/>
<path d="M10.4993 5.97918C10.741 5.97918 10.9368 6.17505 10.9368 6.41668V8.16668C10.9368 8.4083 10.741 8.60418 10.4993 8.60418C10.2577 8.60418 10.0618 8.4083 10.0618 8.16668V6.41668C10.0618 6.17505 10.2577 5.97918 10.4993 5.97918Z" fill="black"/>
<path d="M3.93685 6.41668C3.93685 6.17505 3.74097 5.97918 3.49935 5.97918C3.25772 5.97918 3.06185 6.17505 3.06185 6.41668L3.06185 8.16668C3.06185 8.4083 3.25772 8.60418 3.49935 8.60418C3.74097 8.60418 3.93685 8.4083 3.93685 8.16668V6.41668Z" fill="black"/>
<path fill-rule="evenodd" clip-rule="evenodd" d="M3.20768 1.89584C1.83848 1.89584 0.728516 3.0058 0.728516 4.37501V10.2083C0.728516 11.5775 1.83848 12.6875 3.20768 12.6875H10.791C12.1602 12.6875 13.2702 11.5775 13.2702 10.2083V4.37501C13.2702 3.0058 12.1602 1.89584 10.791 1.89584H3.20768ZM1.60352 4.37501C1.60352 3.48905 2.32173 2.77084 3.20768 2.77084H10.791C11.677 2.77084 12.3952 3.48905 12.3952 4.37501V10.2083C12.3952 11.0943 11.677 11.8125 10.791 11.8125H3.20768C2.32173 11.8125 1.60352 11.0943 1.60352 10.2083V4.37501Z" fill="black"/>
</g>
<defs>
<clipPath id="clip0_1_5569">
<rect width="14" height="14" fill="white"/>
</clipPath>
</defs>
</svg>
