<svg width="210" height="131" viewBox="0 0 210 131" fill="none" xmlns="http://www.w3.org/2000/svg">
<path d="M209.504 122.84H15.0629C14.9799 122.84 14.9003 122.807 14.8416 122.748C14.783 122.69 14.75 122.61 14.75 122.527V0.312888C14.7516 0.230407 14.7851 0.151748 14.8434 0.0934138C14.9018 0.0350796 14.9804 0.00160203 15.0629 0C15.1459 0 15.2255 0.0329647 15.2841 0.0916426C15.3428 0.15032 15.3758 0.229905 15.3758 0.312888V122.214H209.504C209.587 122.214 209.667 122.247 209.725 122.306C209.784 122.364 209.817 122.444 209.817 122.527C209.817 122.61 209.784 122.69 209.725 122.748C209.667 122.807 209.587 122.84 209.504 122.84Z" fill="#D5E6FB"/>
<path d="M163.396 13.6732C163.396 13.6732 162.658 11.4642 162.658 11.3078C162.658 11.1514 163.24 9.09255 162.977 8.46052C162.714 7.82848 161.506 5.78219 160.981 5.95741C160.455 6.13263 161.043 7.44676 161.187 7.75339C160.868 6.78344 159.391 6.26404 158.572 5.79471C157.372 5.18604 156.001 5.00712 154.685 5.28783C154.205 5.33832 153.746 5.51777 153.359 5.80723C153.167 5.95416 153.028 6.15875 152.962 6.39085C152.895 6.62294 152.905 6.87025 152.99 7.09632C153.277 7.7221 154.141 7.76591 154.66 8.21021C155.461 8.8923 156.006 10.4442 156.431 11.3829C157.061 12.7679 157.687 14.1509 158.309 15.5318" fill="white"/>
<path d="M158.322 15.8259C158.262 15.8262 158.204 15.8092 158.154 15.777C158.104 15.7448 158.065 15.6987 158.04 15.6444L156.163 11.4892C156.082 11.314 155.994 11.1138 155.906 10.901C155.598 9.97936 155.108 9.12845 154.467 8.39789C154.276 8.25077 154.065 8.13074 153.841 8.0412C153.379 7.90151 152.986 7.59331 152.74 7.17763C152.635 6.89393 152.622 6.58466 152.702 6.29298C152.781 6.0013 152.95 5.74177 153.184 5.55061C153.611 5.21309 154.122 4.99692 154.661 4.92483C156.048 4.64003 157.491 4.83417 158.754 5.47552C158.923 5.56938 159.117 5.66325 159.323 5.76963C159.718 5.95409 160.1 6.16309 160.468 6.39541C160.452 6.23772 160.476 6.07855 160.537 5.93233C160.574 5.85173 160.628 5.77991 160.695 5.72165C160.762 5.66339 160.84 5.62002 160.925 5.59441C161.889 5.32533 163.284 8.27273 163.297 8.30402C163.522 8.84219 163.297 9.96233 163.072 10.9698C163.034 11.1263 163.009 11.2389 163.003 11.289C162.996 11.339 163.391 12.5405 163.729 13.5355C163.754 13.6143 163.748 13.7001 163.71 13.7741C163.673 13.848 163.607 13.904 163.528 13.9298C163.49 13.9435 163.449 13.9493 163.408 13.9469C163.367 13.9446 163.327 13.934 163.29 13.916C163.254 13.8979 163.221 13.8726 163.194 13.8417C163.167 13.8107 163.147 13.7747 163.134 13.7358C162.814 12.9362 162.561 12.1115 162.377 11.2702C162.391 11.1221 162.418 10.9755 162.458 10.8322C162.565 10.3691 162.884 8.95483 162.721 8.54808C162.408 7.8034 161.407 6.27651 161.063 6.20142C161.098 6.5856 161.206 6.9595 161.382 7.30278C161.437 7.39645 161.483 7.49489 161.52 7.5969C161.55 7.67407 161.549 7.76028 161.516 7.83656C161.483 7.91284 161.422 7.97295 161.344 8.00365C161.267 8.03435 161.181 8.03314 161.105 8.00028C161.028 7.96743 160.968 7.90561 160.938 7.82843L160.825 7.59064C160.346 7.03196 159.735 6.60175 159.048 6.33909C158.829 6.2327 158.622 6.13258 158.422 6.03246C157.284 5.46288 155.988 5.29525 154.742 5.55687C154.318 5.60093 153.912 5.75635 153.566 6.00743C153.43 6.11152 153.329 6.25515 153.277 6.41868C153.226 6.58221 153.226 6.75767 153.278 6.92106C153.403 7.19014 153.71 7.32156 154.067 7.48426C154.355 7.59361 154.625 7.74548 154.868 7.93481C155.586 8.71453 156.133 9.63519 156.476 10.6382C156.564 10.8447 156.645 11.0387 156.726 11.2139L158.604 15.3628C158.628 15.4106 158.639 15.4639 158.636 15.5173C158.633 15.5708 158.616 15.6226 158.587 15.6675C158.558 15.7124 158.518 15.749 158.47 15.7734C158.422 15.7979 158.369 15.8095 158.316 15.8071L158.322 15.8259Z" fill="#093269"/>
<path d="M161.188 7.72833C161.188 7.72833 159.198 8.35411 160.043 10.6883L161.188 7.72833Z" fill="white"/>
<path d="M160.067 11.0012C160.002 11.0024 159.938 10.9832 159.884 10.9462C159.83 10.9091 159.789 10.8561 159.767 10.7947C159.614 10.4443 159.535 10.0661 159.535 9.6839C159.535 9.30165 159.614 8.92352 159.767 8.57314C160.052 8.03523 160.53 7.62581 161.106 7.42797C161.186 7.40428 161.271 7.4126 161.345 7.45117C161.419 7.48973 161.474 7.5555 161.5 7.63448C161.524 7.71331 161.515 7.79822 161.477 7.87083C161.438 7.94345 161.372 7.99792 161.294 8.02246C160.878 8.17311 160.533 8.47167 160.324 8.861C160.206 9.13358 160.145 9.42749 160.145 9.72457C160.145 10.0216 160.206 10.3156 160.324 10.5881C160.35 10.6662 160.344 10.7513 160.308 10.825C160.271 10.8988 160.207 10.9553 160.13 10.9824C160.11 10.991 160.089 10.9973 160.067 11.0012Z" fill="#093269"/>
<path d="M176.612 38.6167L164.591 12.4592L156.5 13.9736L168.753 52.4025L176.612 38.6167Z" fill="#36B0E3"/>
<path d="M189.943 121.67C189.943 121.67 190.306 124.029 189.761 124.936C189.034 126.215 188.606 127.642 188.51 129.11C188.944 129.598 189.474 129.99 190.068 130.261C190.662 130.533 191.305 130.678 191.958 130.687C194.142 130.687 196.338 129.054 196.557 128.265C196.776 127.477 194.805 119.123 194.805 119.123L189.943 121.67Z" fill="white"/>
<path d="M191.938 131C191.237 130.997 190.545 130.847 189.905 130.559C189.266 130.271 188.694 129.852 188.227 129.329C188.202 129.297 188.184 129.259 188.173 129.22C188.162 129.18 188.159 129.138 188.165 129.098C188.264 127.581 188.711 126.108 189.473 124.792C189.873 124.129 189.71 122.358 189.617 121.732C189.606 121.668 189.617 121.602 189.646 121.543C189.675 121.485 189.722 121.437 189.779 121.407L194.623 118.866C194.665 118.845 194.713 118.834 194.76 118.834C194.808 118.834 194.855 118.845 194.898 118.866C194.941 118.886 194.98 118.916 195.01 118.953C195.04 118.99 195.062 119.033 195.073 119.079C195.543 121.056 197.07 127.577 196.819 128.384C196.563 129.26 194.304 131 191.938 131ZM188.809 129.01C189.631 129.861 190.756 130.351 191.938 130.374C193.997 130.374 196.043 128.81 196.243 128.171C196.362 127.671 195.486 123.453 194.573 119.592L190.286 121.845C190.367 122.471 190.53 124.26 190.03 125.099C189.337 126.295 188.922 127.632 188.816 129.01H188.809Z" fill="#093269"/>
<path d="M171.438 68.6852L181.925 71.5888L184.36 41.2574C184.36 41.2574 175.674 39.1986 173.571 40.1686C171.469 41.1385 171.438 68.6852 171.438 68.6852Z" fill="white"/>
<path d="M181.926 71.9017H181.844L171.331 68.9856C171.265 68.9677 171.207 68.9287 171.165 68.8744C171.123 68.8202 171.1 68.7537 171.1 68.6852C171.1 64.0482 171.25 40.8882 173.415 39.8995C175.58 38.9107 184.053 40.8819 184.404 40.9696C184.476 40.9859 184.54 41.0279 184.583 41.0877C184.627 41.1475 184.648 41.2211 184.641 41.295L182.213 71.6263C182.209 71.6721 182.196 71.7165 182.173 71.7565C182.15 71.7964 182.119 71.831 182.082 71.8579C182.035 71.8866 181.981 71.9017 181.926 71.9017ZM171.75 68.4474L181.644 71.1883L184.022 41.5015C181.45 40.9132 175.261 39.7243 173.703 40.4564C172.514 41.0008 171.775 55.0746 171.75 68.4474Z" fill="#093269"/>
<path d="M174.935 116.745V123.847L171.543 124.817L171.625 123.359L170.079 124.892C170.079 124.892 160.974 126.532 161.018 125.318C161.062 124.104 161.988 123.441 163.139 122.815C164.291 122.189 167.62 120.312 167.62 120.312L168.102 115.105" fill="white"/>
<path d="M162.753 126.075C162.123 126.142 161.487 126.029 160.919 125.75C160.855 125.696 160.804 125.627 160.77 125.55C160.736 125.473 160.721 125.389 160.725 125.305C160.775 123.922 161.852 123.165 163.009 122.558C164.167 121.951 166.695 120.525 167.333 120.162L167.803 115.155C167.807 115.114 167.818 115.074 167.837 115.038C167.857 115.001 167.883 114.969 167.914 114.942C167.946 114.916 167.983 114.896 168.022 114.884C168.061 114.871 168.103 114.867 168.144 114.871C168.185 114.874 168.225 114.886 168.261 114.905C168.298 114.924 168.33 114.951 168.357 114.982C168.383 115.014 168.403 115.05 168.416 115.09C168.428 115.129 168.432 115.171 168.429 115.212L167.94 120.418C167.938 120.469 167.922 120.518 167.894 120.561C167.867 120.604 167.829 120.638 167.784 120.662C167.753 120.662 164.524 122.502 163.297 123.165C162.071 123.829 161.389 124.373 161.345 125.381C161.764 125.781 166.119 125.337 169.943 124.655L171.407 123.19C171.45 123.144 171.507 123.114 171.569 123.102C171.631 123.091 171.695 123.1 171.751 123.128C171.809 123.153 171.858 123.195 171.892 123.249C171.925 123.302 171.942 123.365 171.939 123.428L171.883 124.442L174.624 123.66V116.776C174.624 116.693 174.657 116.614 174.715 116.555C174.774 116.496 174.854 116.463 174.937 116.463C175.02 116.463 175.099 116.496 175.158 116.555C175.217 116.614 175.25 116.693 175.25 116.776V123.879C175.249 123.947 175.226 124.014 175.184 124.068C175.143 124.122 175.084 124.161 175.018 124.179L171.633 125.149C171.584 125.162 171.534 125.163 171.485 125.154C171.436 125.144 171.39 125.123 171.351 125.093C171.311 125.062 171.279 125.022 171.259 124.976C171.238 124.93 171.229 124.88 171.232 124.83L171.27 124.204L170.312 125.162C170.268 125.206 170.211 125.237 170.149 125.249C167.707 125.702 165.235 125.978 162.753 126.075Z" fill="#093269"/>
<path d="M191.206 71.5513L197.508 121.194C197.508 121.194 197.239 123.165 192.965 123.409C188.691 123.653 189.116 122.646 189.116 122.646L178.941 87.3771L176.2 118.766L166.951 119.317L168.791 67.6902L191.206 71.5513Z" fill="#093269"/>
<path d="M191.732 123.747C190.155 123.747 189.229 123.522 188.909 123.071C188.823 122.95 188.783 122.801 188.797 122.652L179.11 89.0605L176.507 118.785C176.501 118.859 176.468 118.928 176.415 118.98C176.362 119.031 176.293 119.062 176.219 119.066L166.982 119.636C166.94 119.639 166.897 119.633 166.857 119.618C166.817 119.603 166.781 119.579 166.751 119.548C166.719 119.519 166.694 119.483 166.677 119.443C166.661 119.403 166.654 119.36 166.657 119.317L168.49 67.6902C168.491 67.6458 168.502 67.6021 168.521 67.5621C168.541 67.5221 168.569 67.4868 168.603 67.4587C168.637 67.4303 168.678 67.41 168.721 67.3992C168.764 67.3883 168.81 67.3873 168.853 67.3961L191.262 71.2446C191.327 71.2558 191.387 71.2873 191.433 71.3345C191.479 71.3817 191.509 71.4422 191.519 71.5075L197.82 121.144V121.225C197.82 121.319 197.464 123.453 192.983 123.729C192.526 123.735 192.107 123.747 191.732 123.747ZM189.404 122.759C189.448 122.759 189.836 123.259 192.946 123.084C196.563 122.884 197.126 121.407 197.195 121.169L190.937 71.8141L169.104 68.0594L167.295 118.991L175.918 118.453L178.64 87.3334C178.632 87.2504 178.657 87.1675 178.71 87.1029C178.763 87.0384 178.839 86.9975 178.922 86.9892C179.005 86.9809 179.088 87.0059 179.152 87.0587C179.217 87.1115 179.258 87.1878 179.266 87.2708L189.441 122.546C189.463 122.613 189.463 122.685 189.441 122.752L189.404 122.759Z" fill="#093269"/>
<path d="M182.394 37.4464C182.394 37.4464 179.103 72.3835 180.717 74.4548C182.332 76.5262 189.553 79.3359 192.782 76.7514C196.011 74.167 194.303 46.8957 192.851 44.6366C188.852 41.2574 182.394 37.4464 182.394 37.4464Z" fill="#36B0E3"/>
<path d="M168.828 38.7105C168.828 38.7105 161.944 72.6401 162.933 73.6101C163.922 74.58 170.58 76.6326 172.032 75.6626C173.484 74.6927 176.644 38.6167 176.644 38.6167C176.644 38.6167 170.893 36.9396 168.828 38.7105Z" fill="#36B0E3"/>
<path d="M178.291 44.0296L179.135 45.4752L174.186 65.6314L176.144 68.5726L179.104 66.3699L180.062 45.763L181.244 44.355L179.968 43.2912L178.291 44.0296Z" fill="#D5E6FB"/>
<path d="M177.339 36.0447L176.088 40.3062C176.088 40.3062 176.056 42.4151 179.11 42.6091C182.164 42.8031 183.184 40.9758 183.184 40.9758L185.255 32.9596C185.255 32.9596 183.847 31.2012 185.881 26.8207C182.837 26.7497 179.832 26.1131 177.02 24.9434C176.218 27.3914 175.552 29.8815 175.024 32.4027C174.686 34.7118 177.339 36.0447 177.339 36.0447Z" fill="white"/>
<path d="M179.529 42.9345C179.378 42.9345 179.222 42.9345 179.059 42.9345C175.749 42.728 175.749 40.3376 175.749 40.3125C175.746 40.2834 175.746 40.254 175.749 40.2249L176.957 36.2074C176.274 35.8007 174.391 34.4803 174.698 32.3777C175.035 30.0686 176.644 25.0811 176.706 24.8684C176.721 24.826 176.744 24.787 176.774 24.7537C176.804 24.7204 176.841 24.6935 176.881 24.6744C176.922 24.6573 176.966 24.6486 177.01 24.6486C177.054 24.6486 177.097 24.6573 177.138 24.6744C179.912 25.8096 182.871 26.4268 185.868 26.4954C185.92 26.4943 185.972 26.507 186.018 26.5322C186.064 26.5575 186.103 26.5944 186.13 26.6393C186.155 26.6855 186.168 26.7371 186.168 26.7895C186.168 26.8419 186.155 26.8935 186.13 26.9397C184.222 31.0448 185.455 32.7406 185.467 32.7531C185.497 32.7915 185.518 32.8363 185.528 32.8841C185.538 32.9319 185.536 32.9814 185.523 33.0285L183.427 41.0635C183.422 41.0904 183.411 41.116 183.396 41.1385C183.39 41.2074 182.382 42.9345 179.529 42.9345ZM176.4 40.3438C176.4 40.6129 176.612 42.1398 179.128 42.2962C181.744 42.4652 182.739 41.0885 182.883 40.8507L184.935 32.9972C184.641 32.5028 183.878 30.6881 185.417 27.1024C182.61 26.9974 179.842 26.4132 177.232 25.3752C176.473 27.6972 175.847 30.0601 175.355 32.4528C175.054 34.5053 177.482 35.7506 177.507 35.7631C177.572 35.7975 177.622 35.8529 177.651 35.9201C177.679 35.9873 177.684 36.0622 177.664 36.1323L176.4 40.3438Z" fill="#093269"/>
<path d="M183.984 32.3339C184.198 31.9714 184.526 31.6897 184.916 31.5329C185.287 31.4057 185.676 31.3402 186.068 31.3389C186.28 31.3192 186.493 31.347 186.693 31.4202C186.828 31.4878 186.948 31.579 187.05 31.6893C187.31 31.9356 187.474 32.266 187.513 32.6217C187.509 32.908 187.436 33.1891 187.3 33.4415C187.173 33.7286 187.009 33.9979 186.812 34.2425C186.61 34.4788 186.362 34.6728 186.085 34.8133C185.807 34.9538 185.504 35.0382 185.193 35.0614C184.883 35.0847 184.571 35.0464 184.275 34.9488C183.98 34.8513 183.706 34.6963 183.471 34.4928" fill="white"/>
<path d="M185.03 35.3501C184.387 35.358 183.764 35.136 183.271 34.7243C183.214 34.6658 183.182 34.5872 183.182 34.5053C183.182 34.4234 183.214 34.3448 183.271 34.2863C183.3 34.2571 183.334 34.234 183.371 34.2182C183.409 34.2024 183.449 34.1942 183.49 34.1942C183.531 34.1942 183.571 34.2024 183.609 34.2182C183.646 34.234 183.681 34.2571 183.709 34.2863C183.913 34.4632 184.15 34.5979 184.407 34.6827C184.663 34.7675 184.934 34.8006 185.203 34.7803C185.473 34.7599 185.735 34.6864 185.976 34.564C186.217 34.4417 186.431 34.2728 186.606 34.0672C186.786 33.8458 186.935 33.6018 187.051 33.3413C187.164 33.1336 187.226 32.902 187.232 32.6655C187.192 32.3883 187.06 32.1327 186.857 31.9396C186.784 31.8562 186.697 31.7863 186.6 31.7331C186.44 31.6835 186.272 31.6665 186.106 31.683C185.75 31.6801 185.396 31.7394 185.061 31.8583C184.732 31.9865 184.455 32.2197 184.272 32.5216C184.225 32.5809 184.158 32.621 184.083 32.6345C184.009 32.648 183.932 32.6339 183.867 32.5949C183.802 32.5559 183.753 32.4946 183.73 32.4224C183.707 32.3502 183.71 32.272 183.74 32.2024C183.991 31.7822 184.374 31.4566 184.829 31.2763C185.231 31.1324 185.654 31.0604 186.081 31.0635C186.342 31.0348 186.606 31.0691 186.851 31.1636C187.024 31.2474 187.179 31.3643 187.307 31.5078C187.622 31.8039 187.817 32.2043 187.858 32.6342C187.859 32.9728 187.775 33.3063 187.614 33.6042C187.479 33.918 187.3 34.2109 187.082 34.474C186.853 34.7428 186.573 34.9637 186.259 35.1237C185.944 35.2837 185.601 35.3798 185.249 35.4064L185.03 35.3501Z" fill="#093269"/>
<path d="M178.127 28.9859C178.127 28.9859 175.893 30.6693 176.106 31.1699C176.319 31.6705 177.389 31.7957 177.389 31.7957" fill="white"/>
<path d="M177.389 32.0773C177.183 32.0773 176.138 31.9396 175.843 31.295C175.637 30.8132 176.35 29.9496 177.965 28.7356C177.998 28.711 178.035 28.693 178.075 28.6828C178.115 28.6726 178.156 28.6704 178.197 28.6762C178.237 28.682 178.277 28.6958 178.312 28.7167C178.347 28.7376 178.378 28.7653 178.403 28.7982C178.427 28.8311 178.445 28.8685 178.456 28.9083C178.466 28.9481 178.468 28.9895 178.462 29.0302C178.456 29.0708 178.443 29.11 178.422 29.1453C178.401 29.1807 178.373 29.2116 178.34 29.2362C177.352 29.9809 176.463 30.8507 176.432 31.1136C176.513 31.2763 177.057 31.4327 177.439 31.464C177.522 31.464 177.602 31.497 177.66 31.5556C177.719 31.6143 177.752 31.6939 177.752 31.7769C177.752 31.8599 177.719 31.9395 177.66 31.9981C177.602 32.0568 177.522 32.0898 177.439 32.0898L177.389 32.0773Z" fill="#093269"/>
<path d="M180.105 28.713C180.262 28.4565 180.244 28.1594 180.064 28.0493C179.884 27.9393 179.611 28.058 179.454 28.3144C179.297 28.5709 179.316 28.868 179.495 28.978C179.675 29.0881 179.948 28.9694 180.105 28.713Z" fill="#093269"/>
<path d="M177.676 27.8775C177.833 27.6211 177.814 27.3239 177.634 27.2139C177.454 27.1038 177.181 27.2225 177.024 27.479C176.867 27.7354 176.886 28.0325 177.066 28.1426C177.246 28.2526 177.519 28.134 177.676 27.8775Z" fill="#093269"/>
<path d="M176.538 32.6592L178.49 33.1348C178.49 33.1348 178.371 34.5804 177.239 34.6555C176.106 34.7306 176.538 32.6592 176.538 32.6592Z" fill="white"/>
<path d="M177.201 34.9684C177.069 34.9714 176.938 34.9455 176.817 34.8926C176.696 34.8396 176.588 34.7608 176.5 34.6618C175.968 34.036 176.2 32.7844 176.231 32.603C176.238 32.5606 176.253 32.5201 176.277 32.4845C176.301 32.4488 176.332 32.4188 176.369 32.3965C176.442 32.3524 176.53 32.3389 176.613 32.3589L178.559 32.8345C178.632 32.8508 178.696 32.8925 178.741 32.9521C178.786 33.0118 178.808 33.0855 178.803 33.1599C178.753 33.7857 178.371 34.8996 177.276 34.9684H177.201ZM176.801 33.0473C176.722 33.4554 176.782 33.878 176.97 34.2488C177.001 34.2859 177.042 34.3141 177.089 34.3305C177.135 34.347 177.184 34.3512 177.232 34.3426C177.821 34.3051 178.046 33.7168 178.127 33.3727L176.801 33.0473Z" fill="#093269"/>
<path d="M177.339 36.0447C177.339 36.0447 179.567 36.6705 180.768 36.3326C180.768 36.3326 179.21 38.6417 176.613 38.6166L177.339 36.0447Z" fill="#093269"/>
<path d="M176.656 38.9295H176.612C176.564 38.9305 176.515 38.9197 176.472 38.8979C176.428 38.8761 176.391 38.844 176.362 38.8044C176.334 38.7662 176.315 38.7222 176.306 38.6756C176.297 38.629 176.299 38.581 176.312 38.5353L177.038 35.9571C177.049 35.9179 177.067 35.8812 177.092 35.8492C177.117 35.8172 177.149 35.7906 177.184 35.7708C177.22 35.751 177.259 35.7384 177.299 35.7339C177.34 35.7293 177.381 35.7329 177.42 35.7443C177.42 35.7443 179.585 36.3325 180.692 36.0322C180.754 36.0179 180.818 36.0222 180.877 36.0445C180.936 36.0667 180.987 36.106 181.024 36.1573C181.059 36.2091 181.078 36.2701 181.078 36.3325C181.078 36.395 181.059 36.456 181.024 36.5078C180.962 36.6079 179.36 38.9295 176.656 38.9295ZM177.557 36.4264L177.032 38.3037C178.178 38.1476 179.235 37.5992 180.023 36.7518C179.202 36.7316 178.385 36.6203 177.589 36.4201L177.557 36.4264Z" fill="#093269"/>
<path d="M167.483 72.2646C167.437 72.2651 167.392 72.2552 167.351 72.2357C167.31 72.2162 167.273 72.1876 167.245 72.152C167.218 72.121 167.198 72.085 167.185 72.046C167.172 72.007 167.168 71.9659 167.171 71.925C167.175 71.8842 167.186 71.8445 167.205 71.8082C167.224 71.772 167.251 71.7399 167.282 71.7139L171.237 68.4411C171.301 68.3892 171.383 68.3648 171.465 68.373C171.547 68.3812 171.623 68.4214 171.675 68.4849C171.702 68.5159 171.722 68.552 171.735 68.5909C171.748 68.6299 171.753 68.671 171.749 68.7119C171.746 68.7527 171.734 68.7924 171.715 68.8287C171.696 68.865 171.669 68.897 171.638 68.923L167.683 72.1958C167.625 72.2396 167.555 72.2637 167.483 72.2646Z" fill="#093269"/>
<path d="M189.754 72.2647C189.695 72.2635 189.636 72.2462 189.585 72.2146C187.189 70.6376 184.298 68.6602 184.135 68.1783C184.121 68.1397 184.115 68.0988 184.118 68.0579C184.12 68.017 184.131 67.977 184.149 67.9403C184.167 67.9035 184.192 67.8708 184.223 67.844C184.254 67.8171 184.29 67.7968 184.329 67.7841C184.404 67.759 184.485 67.7631 184.557 67.7956C184.629 67.8281 184.686 67.8865 184.717 67.9593C184.961 68.316 187.552 70.1308 189.93 71.714C189.998 71.7598 190.046 71.831 190.062 71.9118C190.079 71.9927 190.062 72.0768 190.017 72.1458C189.986 72.1848 189.946 72.2159 189.9 72.2366C189.854 72.2573 189.804 72.2669 189.754 72.2647Z" fill="#093269"/>
<path d="M174.392 53.3349C174.342 53.3357 174.292 53.3241 174.247 53.3012C174.203 53.2783 174.164 53.2447 174.135 53.2035L170.212 47.6841C170.164 47.6123 170.146 47.5248 170.162 47.44C170.18 47.358 170.229 47.2863 170.299 47.2398L172.803 45.6378L170.781 44.2924C170.743 44.2662 170.712 44.2321 170.688 44.1925C170.665 44.1529 170.65 44.1087 170.646 44.063C170.641 44.0172 170.646 43.971 170.661 43.9274C170.676 43.8838 170.7 43.844 170.731 43.8105L173.635 40.9069C173.664 40.8776 173.699 40.8543 173.737 40.8385C173.775 40.8226 173.816 40.8144 173.857 40.8144C173.898 40.8144 173.939 40.8226 173.977 40.8385C174.015 40.8543 174.05 40.8776 174.079 40.9069C174.109 40.935 174.133 40.969 174.149 41.0066C174.166 41.0443 174.174 41.0849 174.174 41.126C174.174 41.167 174.166 41.2076 174.149 41.2453C174.133 41.283 174.109 41.3169 174.079 41.345L171.445 43.9795L173.547 45.3812C173.591 45.4108 173.627 45.451 173.651 45.4981C173.675 45.5451 173.687 45.5975 173.685 45.6503C173.685 45.7018 173.672 45.7525 173.646 45.7974C173.621 45.8424 173.585 45.8801 173.541 45.9069L170.913 47.5902L174.667 52.8405C174.714 52.909 174.733 52.993 174.719 53.0747C174.705 53.1565 174.659 53.2296 174.592 53.2785C174.533 53.3187 174.463 53.3385 174.392 53.3349Z" fill="#093269"/>
<path d="M178.841 89.048C178.767 89.0487 178.695 89.0225 178.638 88.9741C178.582 88.9258 178.545 88.8586 178.534 88.7851C178.459 88.3283 176.713 77.4711 176.838 75.406C176.838 75.323 176.871 75.2435 176.93 75.1848C176.989 75.1261 177.068 75.0931 177.151 75.0931C177.234 75.0931 177.314 75.1261 177.373 75.1848C177.431 75.2435 177.464 75.323 177.464 75.406C177.345 77.4085 179.141 88.5473 179.154 88.6537C179.161 88.694 179.16 88.7354 179.151 88.7753C179.142 88.8153 179.125 88.853 179.101 88.8862C179.077 88.9194 179.047 88.9476 179.012 88.9689C178.977 88.9902 178.938 89.0043 178.897 89.0104L178.841 89.048Z" fill="white"/>
<path d="M188.528 31.3014C188.481 31.3108 188.432 31.3108 188.384 31.3014C188.31 31.2626 188.254 31.1963 188.228 31.1167C188.203 31.0372 188.209 30.9507 188.247 30.8758C188.648 30.0502 188.813 29.1293 188.722 28.2156C188.632 27.302 188.289 26.4314 187.733 25.7007L187.677 25.6318C187.538 25.4718 187.422 25.2927 187.333 25.0999C187.278 24.9464 187.242 24.7866 187.227 24.6243V24.5305C187.11 23.9401 186.868 23.3816 186.517 22.8926C186.166 22.4036 185.715 21.9955 185.193 21.6957C184.125 21.0706 182.953 20.6464 181.732 20.4441C180.802 20.2102 179.836 20.1529 178.885 20.2752C178.437 20.3338 178.009 20.4947 177.634 20.7453C177.258 20.996 176.946 21.3298 176.72 21.7207C176.523 22.0937 176.466 22.5244 176.557 22.936C176.649 23.3475 176.884 23.713 177.22 23.9673C177.255 23.989 177.286 24.0175 177.31 24.051C177.333 24.0845 177.351 24.1223 177.36 24.1624C177.369 24.2025 177.371 24.244 177.364 24.2846C177.357 24.3252 177.342 24.3641 177.321 24.399C177.299 24.434 177.27 24.4643 177.237 24.4882C177.203 24.5121 177.165 24.5292 177.125 24.5385C177.085 24.5478 177.044 24.5491 177.003 24.5424C176.963 24.5356 176.924 24.521 176.889 24.4992C176.421 24.1606 176.091 23.6655 175.958 23.1039C175.824 22.5423 175.897 21.9516 176.163 21.4391C176.432 20.9625 176.808 20.5543 177.26 20.2461C177.713 19.9379 178.23 19.738 178.772 19.6619C179.802 19.5228 180.849 19.5801 181.857 19.8309C183.152 20.0447 184.396 20.4921 185.531 21.1513C186.118 21.4974 186.626 21.9632 187.022 22.5184C187.417 23.0736 187.692 23.7058 187.827 24.374V24.4804C187.839 24.5951 187.862 24.7083 187.896 24.8183C187.965 24.9507 188.049 25.0746 188.146 25.1875L188.203 25.2564C188.839 26.079 189.23 27.0638 189.333 28.0984C189.436 29.133 189.246 30.1756 188.785 31.1074C188.764 31.1599 188.728 31.2057 188.683 31.2399C188.638 31.274 188.585 31.2953 188.528 31.3014Z" fill="#093269"/>
<path d="M182.826 54.6928C182.749 54.6929 182.674 54.6664 182.613 54.6177C182.556 54.5582 182.523 54.4785 182.523 54.3956C182.523 54.3126 182.556 54.233 182.613 54.1734L187.238 48.9419L184.735 45.8631C184.701 45.8193 184.679 45.7677 184.67 45.713C184.661 45.6584 184.666 45.6024 184.685 45.5502C184.705 45.4994 184.738 45.4547 184.781 45.4207C184.824 45.3866 184.875 45.3644 184.929 45.3562L188.202 44.8118L184.985 40.6754C184.935 40.6098 184.912 40.5269 184.923 40.4448C184.933 40.3627 184.976 40.2881 185.041 40.2374C185.106 40.1862 185.189 40.1628 185.271 40.1722C185.353 40.1815 185.428 40.223 185.479 40.2874L189.015 44.8368C189.049 44.8795 189.071 44.9303 189.079 44.9842C189.086 45.0381 189.08 45.0931 189.059 45.1435C189.041 45.1946 189.009 45.2397 188.967 45.2739C188.925 45.3082 188.875 45.3302 188.821 45.3375L185.561 45.8819L187.876 48.7542C187.924 48.8099 187.951 48.8809 187.951 48.9544C187.951 49.028 187.924 49.099 187.876 49.1547L183.077 54.5927C183.045 54.627 183.006 54.6538 182.963 54.6711C182.919 54.6884 182.873 54.6958 182.826 54.6928Z" fill="#093269"/>
<path d="M195.143 75.4248C195.143 75.4248 194.198 77.2521 193.628 77.5712C193.192 77.7847 192.696 77.8464 192.22 77.7465C192.308 78.4974 192.514 78.8541 192.176 79.5299C191.763 80.3372 190.837 81.1194 190.249 81.8203C189.985 82.084 189.793 82.4117 189.692 82.7715C189.663 83.0204 189.696 83.2727 189.789 83.5055C189.882 83.7384 190.031 83.9442 190.224 84.1043C190.618 84.4139 191.06 84.657 191.532 84.824C191.68 84.9016 191.848 84.9322 192.014 84.9116C192.095 84.8868 192.171 84.8487 192.239 84.799C193.646 83.8921 194.989 82.8885 196.257 81.7952C197.308 80.8941 197.977 79.5049 198.76 78.2659" fill="white"/>
<path d="M191.907 85.237C191.735 85.2276 191.567 85.1851 191.412 85.1118C190.906 84.9348 190.434 84.6724 190.017 84.3359C189.782 84.1405 189.602 83.8885 189.492 83.6037C189.383 83.319 189.348 83.0109 189.391 82.7089C189.503 82.2964 189.718 81.9194 190.017 81.6138C190.211 81.3885 190.442 81.1444 190.68 80.9004C191.154 80.4541 191.565 79.9445 191.9 79.386C192.075 79.043 192.107 78.6446 191.988 78.2784C191.988 78.1282 191.938 77.9717 191.913 77.784C191.908 77.7355 191.915 77.6865 191.932 77.641C191.95 77.5954 191.977 77.5544 192.013 77.5212C192.048 77.4867 192.09 77.4613 192.137 77.4471C192.184 77.4329 192.234 77.4304 192.282 77.4398C192.687 77.5258 193.11 77.4752 193.484 77.2959C194.058 76.7083 194.528 76.0268 194.873 75.2809C194.91 75.2072 194.975 75.1514 195.054 75.1256C195.133 75.0998 195.218 75.1061 195.292 75.1432C195.366 75.182 195.422 75.2483 195.448 75.3278C195.474 75.4074 195.467 75.4939 195.43 75.5688C195.261 75.8879 194.403 77.5024 193.784 77.8466C193.417 78.0357 193.007 78.1242 192.595 78.1032C192.595 78.1032 192.595 78.147 192.595 78.172C192.734 78.6717 192.68 79.2055 192.445 79.6676C192.087 80.2847 191.64 80.8456 191.118 81.3322C190.887 81.57 190.668 81.7952 190.492 82.0205C190.267 82.2463 190.099 82.5232 190.004 82.8278C189.984 83.0238 190.013 83.2218 190.09 83.4034C190.166 83.585 190.288 83.7443 190.442 83.8666C190.807 84.1561 191.217 84.3824 191.656 84.5361C191.744 84.5674 191.875 84.63 191.944 84.605C191.991 84.5883 192.035 84.5651 192.076 84.5361C193.469 83.6356 194.799 82.6404 196.055 81.5574C196.834 80.7941 197.484 79.911 197.983 78.9417C198.152 78.6601 198.315 78.3785 198.49 78.1032C198.533 78.0334 198.602 77.9837 198.682 77.965C198.762 77.9462 198.846 77.9599 198.915 78.003C198.985 78.0462 199.035 78.1153 199.053 78.1951C199.072 78.2749 199.059 78.3589 199.015 78.4286C198.846 78.7039 198.684 78.9792 198.521 79.2608C197.989 80.29 197.294 81.2262 196.462 82.033C195.185 83.1326 193.834 84.1445 192.42 85.0618C192.321 85.1301 192.211 85.1809 192.094 85.212C192.033 85.2298 191.97 85.2382 191.907 85.237Z" fill="#093269"/>
<path d="M192.852 44.6366C192.852 44.6366 202.332 51.8268 205.824 60.8254C208.627 68.0594 198.872 80.4122 198.872 80.4122L193.565 75.3622C193.565 75.3622 197.864 68.9167 197.482 65.3498C197.101 61.7829 190.029 56.7579 190.029 56.7579L192.852 44.6366Z" fill="#36B0E3"/>
<path d="M194.378 64.9931C194.296 64.9915 194.217 64.958 194.159 64.8997C194.101 64.8414 194.067 64.7627 194.065 64.6802L193.959 52.0458C193.958 52.0047 193.965 51.9639 193.98 51.9256C193.995 51.8873 194.018 51.8523 194.046 51.8227C194.075 51.7931 194.109 51.7693 194.146 51.7529C194.184 51.7364 194.225 51.7275 194.266 51.7267C194.348 51.7283 194.427 51.7617 194.485 51.8201C194.543 51.8784 194.577 51.9571 194.579 52.0395L194.685 64.674C194.685 64.7575 194.652 64.8378 194.594 64.8975C194.535 64.9571 194.456 64.9915 194.372 64.9931H194.378Z" fill="#093269"/>
<path d="M188.441 80.7815C188.375 80.7825 188.31 80.7604 188.259 80.7189C187.509 80.1165 186.707 79.5824 185.862 79.1232C185.792 79.086 185.738 79.0234 185.712 78.9481C185.686 78.8728 185.69 78.7904 185.723 78.7178C185.756 78.6452 185.815 78.5878 185.888 78.5573C185.962 78.5268 186.044 78.5255 186.119 78.5537C187.004 79.0308 187.842 79.5902 188.622 80.2245C188.655 80.2481 188.684 80.2782 188.705 80.313C188.726 80.3478 188.74 80.3866 188.746 80.427C188.752 80.4674 188.75 80.5086 188.739 80.548C188.728 80.5874 188.71 80.6243 188.685 80.6563C188.656 80.694 188.619 80.7248 188.577 80.7465C188.534 80.7681 188.488 80.7801 188.441 80.7815Z" fill="white"/>
<path d="M168.998 79.9679C168.945 79.9678 168.893 79.9539 168.847 79.9275C168.801 79.9012 168.762 79.8634 168.735 79.8178C168.714 79.7825 168.699 79.7433 168.693 79.7024C168.687 79.6615 168.689 79.6198 168.699 79.5797C168.708 79.5395 168.726 79.5017 168.751 79.4685C168.775 79.4352 168.806 79.4072 168.842 79.386L172.108 77.4273C172.143 77.3995 172.184 77.3795 172.227 77.3686C172.27 77.3577 172.315 77.3562 172.359 77.3641C172.403 77.3721 172.444 77.3893 172.481 77.4146C172.518 77.4399 172.549 77.4728 172.572 77.511C172.595 77.5493 172.609 77.5919 172.614 77.6362C172.619 77.6805 172.615 77.7254 172.601 77.7678C172.588 77.8102 172.565 77.8493 172.535 77.8823C172.505 77.9153 172.468 77.9415 172.427 77.9592L169.161 79.9241C169.111 79.9511 169.055 79.9661 168.998 79.9679Z" fill="white"/>
<path d="M108.454 40.7318H73.623V122.202H108.454V40.7318Z" fill="white"/>
<path d="M108.453 40.7318V122.202H73.6222V40.7318H108.453ZM108.453 40.1561H73.6222C73.4706 40.1577 73.3258 40.2191 73.2191 40.3269C73.1125 40.4347 73.0527 40.5802 73.0527 40.7318V122.202C73.0527 122.353 73.1127 122.497 73.2195 122.604C73.3263 122.711 73.4712 122.771 73.6222 122.771H108.453C108.604 122.771 108.749 122.711 108.856 122.604C108.962 122.497 109.022 122.353 109.022 122.202V40.7318C109.022 40.5802 108.963 40.4347 108.856 40.3269C108.749 40.2191 108.605 40.1577 108.453 40.1561Z" fill="#093269"/>
<path d="M60.6764 68.2659H25.8457V122.202H60.6764V68.2659Z" fill="white"/>
<path d="M60.6756 68.2659V122.202H25.8448V68.2659H60.6756ZM60.6756 67.6902H25.8448C25.6932 67.6919 25.5484 67.7532 25.4418 67.861C25.3352 67.9688 25.2754 68.1143 25.2754 68.2659V122.202C25.2754 122.353 25.3354 122.497 25.4422 122.604C25.549 122.711 25.6938 122.771 25.8448 122.771H60.6756C60.8266 122.771 60.9714 122.711 61.0782 122.604C61.185 122.497 61.245 122.353 61.245 122.202V68.2659C61.2458 68.1906 61.2317 68.1159 61.2035 68.0461C61.1752 67.9763 61.1334 67.9128 61.0805 67.8592C61.0275 67.8057 60.9644 67.7632 60.8949 67.7342C60.8254 67.7052 60.7509 67.6902 60.6756 67.6902Z" fill="#093269"/>
<path d="M156.231 8.86728H121.4V122.202H156.231V8.86728Z" fill="white"/>
<path d="M156.232 8.86725V122.202H121.401V8.86725H156.232ZM156.232 8.29779H121.401C121.25 8.29779 121.106 8.35779 120.999 8.46458C120.892 8.57137 120.832 8.71622 120.832 8.86725V122.202C120.832 122.353 120.892 122.497 120.999 122.604C121.106 122.711 121.25 122.771 121.401 122.771H156.232C156.383 122.771 156.528 122.711 156.635 122.604C156.742 122.497 156.802 122.353 156.802 122.202V8.86725C156.802 8.71622 156.742 8.57137 156.635 8.46458C156.528 8.35779 156.383 8.29779 156.232 8.29779Z" fill="#093269"/>
<path d="M142.557 25.369L135.367 28.3101L144.303 32.4465L142.557 25.369Z" fill="#36B0E3"/>
<path d="M90.6941 111.088C91.9496 109.963 93.3699 109.036 94.9056 108.341C95.0307 112.846 93.2034 116.989 91.5138 119.824H86.0195" fill="white"/>
<path d="M91.5142 120.137H86.0199C85.9374 120.135 85.8588 120.101 85.8004 120.043C85.7421 119.985 85.7086 119.906 85.707 119.824C85.707 119.741 85.74 119.661 85.7987 119.602C85.8574 119.544 85.9369 119.511 86.0199 119.511H91.3328C92.8534 116.92 94.5868 113.053 94.5993 108.829C93.2607 109.495 92.017 110.337 90.901 111.332C90.8414 111.39 90.7618 111.422 90.6788 111.422C90.5959 111.422 90.5162 111.39 90.4567 111.332C90.4295 111.301 90.4087 111.266 90.3955 111.227C90.3823 111.188 90.377 111.147 90.3799 111.106C90.3829 111.065 90.3939 111.026 90.4125 110.989C90.431 110.953 90.4567 110.92 90.488 110.894C91.7676 109.743 93.2178 108.797 94.787 108.09C94.8319 108.069 94.8811 108.057 94.931 108.057C94.9808 108.057 95.03 108.069 95.0749 108.09C95.117 108.119 95.1519 108.157 95.1769 108.202C95.2018 108.246 95.2162 108.296 95.2188 108.347C95.344 112.99 93.4229 117.245 91.7833 119.993C91.7545 120.038 91.7146 120.074 91.6675 120.1C91.6204 120.125 91.5676 120.137 91.5142 120.137Z" fill="#093269"/>
<path d="M82.8223 112.302C84.1739 105.256 89.7058 100.831 89.7058 100.831C90.7281 104.148 91.0687 107.636 90.707 111.088C90.4296 114.072 89.7994 117.013 88.8297 119.849H82.9224" fill="white"/>
<path d="M88.7913 120.137H82.884C82.8015 120.135 82.7229 120.101 82.6645 120.043C82.6062 119.985 82.5727 119.906 82.5711 119.824C82.5711 119.741 82.6041 119.661 82.6628 119.602C82.7214 119.544 82.801 119.511 82.884 119.511H88.5661C89.4968 116.775 90.1059 113.94 90.3808 111.063C90.7227 107.812 90.4358 104.525 89.536 101.382C88.2845 102.49 84.2482 106.538 83.1281 112.358C83.1129 112.439 83.0662 112.511 82.9982 112.558C82.9302 112.605 82.8464 112.623 82.7651 112.608C82.6834 112.592 82.6115 112.544 82.5647 112.475C82.518 112.406 82.5001 112.321 82.5148 112.239C83.8727 105.168 89.4359 100.631 89.4922 100.587C89.5329 100.557 89.5799 100.536 89.6297 100.526C89.6795 100.516 89.7309 100.518 89.7801 100.531C89.8282 100.547 89.8719 100.574 89.9078 100.61C89.9436 100.646 89.9706 100.689 89.9866 100.737C91.0339 104.092 91.3811 107.625 91.0066 111.119C90.7185 114.125 90.0757 117.087 89.0917 119.943C89.0667 120.001 89.0248 120.051 88.9712 120.086C88.9177 120.12 88.8551 120.138 88.7913 120.137Z" fill="#093269"/>
<path d="M79.906 119.824H85.1375C85.1875 118.272 84.8371 115.931 83.1537 112.89C83.0411 112.684 82.9347 112.49 82.8221 112.302C79.7933 107.17 77.0211 107.227 77.0211 107.227C75.8509 112.627 78.3227 117.439 79.906 119.824Z" fill="white"/>
<path d="M85.137 120.137H79.9055C79.8533 120.135 79.8023 120.122 79.7565 120.097C79.7108 120.072 79.6717 120.036 79.6427 119.993C78.0344 117.571 75.5188 112.677 76.714 107.158C76.7304 107.09 76.7687 107.029 76.823 106.985C76.8773 106.941 76.9445 106.916 77.0144 106.914C77.127 106.914 79.9994 106.914 83.0907 112.139L83.4286 112.734C85.187 115.919 85.4937 118.366 85.4499 119.836C85.4466 119.917 85.4122 119.993 85.3539 120.049C85.2956 120.105 85.2178 120.137 85.137 120.137ZM80.0744 119.511H84.8241C84.7309 117.225 84.0638 115 82.8842 113.04L82.5525 112.458C80.1808 108.453 77.9844 107.709 77.271 107.571C76.2822 112.646 78.5476 117.164 80.0744 119.511Z" fill="#093269"/>
<path d="M80.8571 128.115H91.1136L92.7656 119.824H79.2051L80.8571 128.115Z" fill="#093269"/>
<path d="M20.9449 122.796H0.494529C0.411546 122.796 0.331961 122.763 0.273283 122.704C0.214605 122.646 0.181641 122.566 0.181641 122.483C0.181641 122.4 0.214605 122.321 0.273283 122.262C0.331961 122.203 0.411546 122.17 0.494529 122.17H20.9449C21.0274 122.172 21.106 122.205 21.1644 122.264C21.2227 122.322 21.2562 122.401 21.2578 122.483C21.2578 122.566 21.2248 122.646 21.1661 122.704C21.1075 122.763 21.0279 122.796 20.9449 122.796Z" fill="#D5E6FB"/>
<path d="M17.1267 120.531C17.0144 120.531 16.9043 120.5 16.8078 120.443C16.7114 120.385 16.6321 120.303 16.5784 120.205C16.5246 120.106 16.4984 119.995 16.5023 119.883C16.5063 119.771 16.5404 119.662 16.601 119.567L44.2228 76.764C44.2745 76.6826 44.3444 76.6143 44.4269 76.5643C44.5094 76.5144 44.6023 76.4842 44.6984 76.4761C44.7935 76.4681 44.8892 76.482 44.9782 76.5167C45.0671 76.5514 45.1469 76.6061 45.2115 76.6764L67.2514 100.543L92.6454 53.9357C92.6953 53.846 92.7665 53.77 92.8527 53.7144C92.9389 53.6587 93.0375 53.6251 93.1397 53.6165C93.241 53.6075 93.3429 53.6233 93.4367 53.6626C93.5304 53.7019 93.6132 53.7633 93.6779 53.8418L116.099 81.3759L140.467 27.9659C140.536 27.8149 140.662 27.6974 140.818 27.6393C140.973 27.5812 141.145 27.5873 141.296 27.6562C141.447 27.7251 141.565 27.8511 141.623 28.0066C141.681 28.1621 141.675 28.3343 141.606 28.4853L116.819 82.8152C116.775 82.9131 116.706 82.9979 116.619 83.0614C116.533 83.125 116.431 83.1652 116.325 83.1782C116.219 83.1907 116.112 83.1761 116.013 83.1355C115.915 83.095 115.828 83.03 115.762 82.9466L93.2962 55.3311L67.9335 101.883C67.8859 101.969 67.8186 102.043 67.7371 102.098C67.6555 102.154 67.562 102.189 67.4641 102.202C67.3655 102.215 67.2652 102.204 67.1716 102.17C67.078 102.136 66.9938 102.081 66.926 102.008L44.8423 78.0781L17.6523 120.243C17.5958 120.331 17.5181 120.404 17.4262 120.454C17.3344 120.504 17.2314 120.531 17.1267 120.531Z" fill="#36B0E3"/>
</svg>
