<svg width="18" height="18" viewBox="0 0 18 18" fill="none" xmlns="http://www.w3.org/2000/svg">
<g clip-path="url(#clip0_1_5554)">
<path d="M1.5 6.5H16.5" stroke="#36B0E3" stroke-width="1.5" stroke-linecap="round" stroke-linejoin="round"/>
<path d="M16.5 6.5V5C16.5 4.172 15.828 3.5 15 3.5H3C2.172 3.5 1.5 4.172 1.5 5V15C1.5 15.828 2.172 16.5 3 16.5H7.5" stroke="#36B0E3" stroke-width="1.5" stroke-linecap="round" stroke-linejoin="round"/>
<path d="M5.5 1.5V3.5" stroke="#36B0E3" stroke-width="1.5" stroke-linecap="round" stroke-linejoin="round"/>
<path d="M12.5 1.5V3.5" stroke="#36B0E3" stroke-width="1.5" stroke-linecap="round" stroke-linejoin="round"/>
<path d="M12.5 16.5C14.7091 16.5 16.5 14.7091 16.5 12.5C16.5 10.2909 14.7091 8.5 12.5 8.5C10.2909 8.5 8.5 10.2909 8.5 12.5C8.5 14.7091 10.2909 16.5 12.5 16.5Z" stroke="#36B0E3" stroke-width="1.5" stroke-linecap="round" stroke-linejoin="round"/>
<path d="M12.5 10.5V12.5H14.5" stroke="#36B0E3" stroke-width="1.5" stroke-linecap="round" stroke-linejoin="round"/>
</g>
<defs>
<clipPath id="clip0_1_5554">
<rect width="18" height="18" fill="white"/>
</clipPath>
</defs>
</svg>
