<svg width="16" height="16" viewBox="0 0 16 16" fill="none" xmlns="http://www.w3.org/2000/svg">
    <path fill-rule="evenodd" clip-rule="evenodd" d="M6.61724 0.666657H9.38146C10.5971 0.666639 11.5769 0.666624 12.3476 0.770233C13.1477 0.877803 13.8213 1.10793 14.3564 1.64297C14.8914 2.17801 15.1215 2.85167 15.2291 3.65177C15.3327 4.42241 15.3327 5.40226 15.3327 6.6179V9.38208C15.3327 10.5977 15.3327 11.5776 15.2291 12.3482C15.1215 13.1483 14.8914 13.822 14.3564 14.357C13.8213 14.8921 13.1477 15.1222 12.3476 15.2297C11.5769 15.3334 10.5971 15.3333 9.38144 15.3333H6.61726C5.40161 15.3333 4.42177 15.3334 3.65113 15.2297C2.85103 15.1222 2.17736 14.8921 1.64233 14.357C1.10729 13.822 0.877163 13.1483 0.769592 12.3482C0.665983 11.5776 0.665998 10.5977 0.666016 9.3821V6.61788C0.665998 5.40225 0.665983 4.42241 0.769592 3.65177C0.877163 2.85167 1.10729 2.17801 1.64233 1.64297C2.17736 1.10793 2.85103 0.877803 3.65113 0.770233C4.42176 0.666624 5.40161 0.666639 6.61724 0.666657ZM3.82879 2.09168C3.17655 2.17937 2.83115 2.33977 2.58514 2.58578C2.33912 2.83179 2.17873 3.17719 2.09104 3.82943C2.00077 4.50085 1.99935 5.39073 1.99935 6.66666V9.33332C1.99935 10.6093 2.00077 11.4991 2.09104 12.1706C2.17873 12.8228 2.33912 13.1682 2.58514 13.4142C2.83115 13.6602 3.17655 13.8206 3.82879 13.9083C4.50021 13.9986 5.39009 14 6.66602 14H9.33268C10.6086 14 11.4985 13.9986 12.1699 13.9083C12.8222 13.8206 13.1676 13.6602 13.4136 13.4142C13.6596 13.1682 13.82 12.8228 13.9077 12.1706C13.9979 11.4991 13.9994 10.6093 13.9994 9.33332V6.66666C13.9994 5.39073 13.9979 4.50085 13.9077 3.82943C13.82 3.17719 13.6596 2.83179 13.4136 2.58578C13.1676 2.33977 12.8222 2.17937 12.1699 2.09168C11.4985 2.00141 10.6086 1.99999 9.33268 1.99999H6.66602C5.39009 1.99999 4.50021 2.00141 3.82879 2.09168Z" fill="black"/>
    <path fill-rule="evenodd" clip-rule="evenodd" d="M8.66732 4.66666V11.3333H7.33398V4.66666H8.66732Z" fill="black"/>
    <path fill-rule="evenodd" clip-rule="evenodd" d="M11.9993 6.66666L11.9993 11.3333L10.666 11.3333L10.666 6.66666L11.9993 6.66666Z" fill="black"/>
    <path fill-rule="evenodd" clip-rule="evenodd" d="M5.33333 8L5.33333 11.3333L4 11.3333L4 8L5.33333 8Z" fill="black"/>
</svg>
